<?xml version="1.0" standalone="no"?>
<!DOCTYPE svg PUBLIC "-//W3C//DTD SVG 20010904//EN"
 "http://www.w3.org/TR/2001/REC-SVG-20010904/DTD/svg10.dtd">
<svg version="1.0" xmlns="http://www.w3.org/2000/svg"
 width="600.000000pt" height="600.000000pt" viewBox="0 0 600.000000 600.000000"
 preserveAspectRatio="xMidYMid meet">
<metadata>
Created by potrace 1.11, written by Peter Selinger 2001-2013
</metadata>
<g transform="translate(0.000000,600.000000) scale(0.100000,-0.100000)"
fill="#000000" stroke="none">
<path d="M4577 5994 c-11 -11 -9 -44 3 -44 6 0 10 -5 10 -11 0 -5 -4 -8 -9 -5
-5 4 -8 -2 -6 -11 1 -10 -3 -24 -9 -32 -8 -11 -8 -13 0 -8 7 4 18 -1 25 -10 8
-9 9 -14 3 -10 -16 9 -11 -68 5 -87 10 -11 9 -19 0 -34 -10 -16 -10 -23 0 -35
9 -12 9 -16 -1 -20 -10 -4 -10 -6 1 -6 11 -1 11 -4 1 -16 -10 -12 -10 -15 1
-15 11 0 11 -2 -1 -10 -8 -5 -10 -10 -4 -10 5 0 10 -11 10 -25 0 -14 -5 -25
-10 -25 -6 -1 0 -7 14 -15 14 -8 19 -14 12 -15 -7 0 -11 -4 -7 -9 3 -5 1 -12
-4 -15 -5 -4 -8 -18 -5 -32 3 -19 1 -24 -8 -19 -7 4 -3 -2 8 -12 20 -18 20
-20 5 -31 -14 -9 -13 -10 7 -7 20 4 22 2 12 -10 -7 -8 -17 -12 -23 -8 -6 3 -7
1 -3 -6 4 -6 13 -8 19 -4 7 4 5 -2 -3 -12 -8 -10 -9 -16 -3 -11 9 5 12 -9 10
-58 -1 -38 2 -68 8 -70 6 -3 6 -5 0 -5 -12 -1 -11 -73 1 -92 13 -21 13 -38 2
-46 -7 -4 -8 -1 -3 7 6 9 4 11 -4 6 -9 -6 -8 -13 6 -29 10 -11 12 -17 6 -13
-7 4 -13 2 -13 -3 0 -6 6 -11 13 -11 8 0 7 -4 -3 -10 -8 -5 -10 -10 -5 -10 6
0 3 -5 -5 -10 -13 -8 -12 -10 3 -10 9 0 17 -5 17 -11 0 -5 -4 -8 -8 -5 -4 2
-8 -4 -9 -14 -1 -11 2 -22 8 -25 5 -3 6 2 3 12 -5 15 -4 15 5 3 7 -11 6 -21
-5 -39 -9 -13 -11 -20 -5 -17 6 4 11 4 12 -1 6 -65 5 -143 -2 -143 -5 0 -6 8
-3 18 5 14 4 15 -5 2 -8 -11 -7 -18 2 -25 20 -17 20 -38 0 -31 -16 5 -16 4 -3
-6 16 -14 19 -56 5 -78 -5 -8 -4 -11 1 -7 13 8 12 -116 -1 -125 -6 -5 -5 -8 3
-8 6 0 12 -5 12 -11 0 -5 -6 -7 -12 -3 -10 6 -10 4 0 -7 17 -19 15 -29 -5 -23
-14 4 -15 4 -5 -4 15 -10 23 -122 9 -122 -5 0 -5 -6 -1 -12 13 -21 12 -48 -2
-48 -13 0 -12 -18 2 -54 5 -14 4 -17 -4 -12 -7 4 -12 2 -12 -3 0 -6 4 -11 9
-11 5 0 12 -7 15 -16 6 -15 4 -15 -10 -3 -16 13 -16 12 -4 -11 13 -24 12 -24
-5 -10 -17 14 -17 14 -7 -7 14 -25 15 -36 5 -30 -5 3 -7 -29 -6 -71 2 -51 -2
-79 -10 -84 -9 -6 -9 -8 2 -8 11 0 11 -3 0 -16 -10 -13 -10 -17 2 -25 10 -6
10 -9 2 -9 -7 0 -13 -5 -13 -11 0 -5 5 -7 12 -3 7 5 8 3 4 -5 -5 -7 -15 -10
-24 -6 -13 5 -13 3 2 -14 12 -13 14 -21 6 -26 -6 -4 -9 -13 -6 -21 3 -8 1 -14
-4 -14 -8 0 -8 -15 2 -47 1 -6 -6 -19 -17 -28 -15 -13 -16 -15 -3 -11 19 6 33
-20 16 -30 -7 -5 -8 -2 -3 6 5 8 3 11 -6 8 -8 -3 -14 -19 -14 -39 0 -19 -4
-37 -10 -41 -6 -5 -5 -8 3 -8 7 0 4 -8 -8 -20 -11 -11 -20 -26 -20 -32 1 -7 7
-2 15 12 15 25 15 25 12 2 -2 -13 -10 -28 -18 -33 -12 -7 -12 -9 1 -9 13 0 13
-1 0 -10 -8 -5 -11 -12 -7 -16 4 -4 2 -13 -4 -21 -9 -10 -8 -13 2 -13 12 0 12
-2 0 -9 -8 -5 -11 -16 -7 -26 5 -14 4 -15 -7 -7 -11 9 -13 3 -12 -33 1 -48 -3
-52 -25 -32 -11 9 -11 8 0 -8 8 -11 20 -24 25 -28 6 -5 4 -7 -6 -4 -9 3 -22 1
-30 -4 -11 -7 -11 -9 4 -9 9 0 17 -5 17 -11 0 -5 -5 -7 -12 -3 -7 5 -9 2 -5
-9 3 -9 1 -18 -6 -20 -9 -3 -8 -9 3 -22 14 -17 14 -17 -6 -7 -16 9 -21 8 -21
-3 0 -8 5 -11 11 -8 6 4 2 -4 -9 -17 -11 -13 -14 -20 -7 -16 6 4 12 3 12 -2 0
-6 -7 -13 -16 -16 -9 -4 -14 -13 -10 -21 3 -8 1 -15 -5 -15 -6 0 -7 -5 -3 -12
4 -6 -1 -17 -11 -25 -11 -7 -15 -13 -11 -13 5 0 3 -7 -4 -15 -6 -8 -9 -19 -5
-25 3 -5 1 -10 -5 -10 -6 0 -8 -5 -4 -12 4 -6 3 -8 -4 -4 -6 3 -13 2 -17 -4
-3 -5 -1 -10 4 -10 6 0 11 -5 11 -11 0 -5 -4 -7 -10 -4 -5 3 -10 1 -10 -6 0
-7 -3 -9 -7 -6 -3 4 -12 2 -20 -5 -7 -6 -16 -8 -20 -4 -3 3 -1 6 6 6 9 0 8 4
-3 15 -8 8 -20 15 -26 15 -6 0 -8 5 -5 10 3 6 -4 10 -16 10 -19 0 -20 2 -8 17
9 10 9 14 2 10 -13 -8 -70 49 -65 65 1 5 -7 4 -18 -2 -16 -8 -20 -8 -18 2 2 7
-3 12 -11 10 -12 -3 -12 0 -1 13 11 13 10 15 -3 10 -8 -4 -18 -1 -23 6 -5 8
-3 10 7 4 12 -8 12 -6 0 8 -15 18 -26 23 -16 7 3 -5 -1 -10 -9 -10 -9 0 -15 3
-15 8 3 16 -1 32 -8 31 -20 -3 -34 2 -29 10 3 5 -1 12 -10 15 -10 4 -14 12 -9
24 5 13 4 14 -6 5 -10 -10 -15 -8 -24 10 -6 12 -19 21 -29 20 -9 0 -15 1 -12
4 3 3 -13 19 -34 34 -22 16 -40 32 -40 36 0 3 10 -2 22 -13 l22 -19 -20 27
c-12 17 -23 23 -30 17 -7 -6 -16 -3 -25 8 -13 17 -13 17 6 3 19 -14 19 -14 6
3 -7 9 -19 17 -26 17 -7 0 -25 16 -41 35 -17 22 -34 33 -42 30 -12 -5 -13 -3
-2 10 11 13 10 15 -2 10 -8 -3 -22 3 -32 14 -10 11 -24 18 -30 14 -6 -4 -5 0
2 9 8 10 9 19 3 22 -5 3 -12 0 -14 -6 -4 -8 -8 -5 -12 9 -4 12 -13 19 -20 17
-7 -3 -16 0 -21 7 -4 8 -3 10 4 5 7 -4 12 -2 12 4 0 6 -13 13 -29 16 -17 4
-32 13 -36 22 -5 13 -3 13 12 1 16 -13 17 -12 4 3 -7 10 -17 15 -22 12 -5 -3
-12 2 -15 10 -3 9 -11 16 -18 16 -6 0 -18 9 -26 20 -8 11 -20 20 -28 20 -7 0
-10 5 -7 10 3 6 -3 10 -15 10 -12 0 -18 5 -15 10 3 6 -1 10 -10 10 -11 0 -15
5 -12 15 4 8 1 17 -5 21 -7 5 -8 2 -3 -6 5 -8 3 -11 -6 -8 -8 3 -13 10 -12 16
2 7 -4 9 -14 5 -10 -4 -14 -2 -10 4 4 6 0 14 -9 17 -8 3 -12 10 -9 16 3 5 0 7
-8 4 -8 -3 -19 5 -26 18 -6 13 -9 15 -6 5 3 -10 1 -15 -5 -12 -6 3 -10 12 -10
19 0 8 -8 20 -17 27 -17 13 -17 13 -3 -5 15 -19 14 -19 -12 -2 -25 17 -42 36
-18 21 5 -3 7 0 4 9 -3 8 -12 12 -20 9 -8 -3 -14 1 -14 10 0 8 -7 18 -16 21
-15 6 -15 4 -3 -11 13 -16 12 -17 -4 -4 -10 8 -16 20 -13 27 3 7 0 16 -6 20
-7 4 -8 3 -4 -4 4 -7 1 -12 -9 -12 -10 0 -15 6 -13 13 3 6 -18 29 -46 50 l-51
38 45 -42 c33 -30 36 -36 13 -20 -18 12 -46 38 -64 59 -17 20 -29 32 -26 26 4
-6 0 -11 -8 -11 -7 0 -12 8 -10 18 2 10 -1 22 -7 25 -7 4 -8 2 -4 -4 4 -7 2
-12 -3 -12 -6 0 -11 7 -11 15 0 14 -12 19 -32 16 -5 0 -8 6 -8 14 0 13 -26 21
-54 16 -5 -1 -3 6 5 15 9 12 9 15 2 10 -7 -4 -13 -2 -13 3 0 6 -7 11 -16 11
-10 0 -14 6 -11 14 4 10 -1 13 -17 12 -19 -2 -22 1 -19 18 3 14 2 17 -4 9 -6
-8 -14 -9 -23 -3 -13 9 -13 10 0 10 12 1 11 3 -3 11 -9 5 -22 7 -27 4 -6 -3
-7 1 -4 9 4 11 0 16 -11 16 -10 0 -13 5 -9 12 5 8 2 9 -10 5 -10 -4 -15 -3
-11 3 6 9 -9 15 -29 11 -5 -1 -4 5 4 13 10 13 10 16 -4 16 -11 0 -14 4 -10 13
6 8 3 8 -9 -1 -14 -12 -16 -11 -12 7 2 11 1 20 -3 20 -23 -4 -42 2 -37 11 3 6
1 10 -5 10 -6 0 -8 5 -5 10 3 6 -1 10 -10 10 -9 0 -13 5 -10 10 4 6 1 9 -7 8
-7 -2 -12 3 -10 10 1 8 -2 11 -8 7 -18 -11 -42 15 -29 31 8 10 6 12 -10 9 -16
-3 -21 1 -21 17 0 21 0 21 -15 2 -13 -17 -14 -17 -9 -1 5 13 1 20 -15 24 -11
3 -21 11 -21 18 0 7 -7 18 -15 25 -8 7 -13 16 -10 20 3 5 -5 6 -17 3 -13 -3
-20 -3 -16 2 8 8 -15 35 -30 35 -5 0 -16 8 -23 18 -13 15 -12 16 4 3 15 -12
17 -12 11 3 -3 9 -15 16 -26 16 -13 0 -18 5 -15 14 4 11 1 13 -10 9 -12 -5
-14 -1 -8 18 5 19 4 21 -5 9 -9 -11 -13 -12 -17 -2 -2 6 -9 9 -15 6 -6 -4 -8
2 -3 17 5 18 4 20 -4 9 -8 -12 -12 -9 -20 13 -7 17 -18 27 -31 27 -12 0 -19 4
-16 9 3 5 -1 12 -10 15 -9 3 -14 13 -11 20 4 10 0 13 -15 11 -17 -4 -19 -1
-14 23 4 15 3 23 -1 17 -4 -5 -15 -12 -23 -13 -8 -2 -12 0 -7 4 4 4 -5 16 -20
26 -16 10 -23 18 -17 18 5 0 15 -4 22 -10 7 -5 6 -3 -1 6 -8 8 -23 16 -35 17
-11 0 -20 4 -19 7 4 18 -17 49 -38 54 -14 4 -25 12 -25 18 0 9 3 9 12 0 7 -7
17 -12 22 -12 6 0 0 7 -12 16 -12 8 -27 12 -32 9 -6 -3 -10 -2 -10 4 0 5 6 12
13 14 6 3 2 6 -10 6 -12 1 -25 6 -29 13 -5 7 -3 8 6 3 9 -6 11 -4 6 4 -5 7
-15 10 -23 7 -10 -4 -13 -2 -10 8 3 8 -10 28 -31 47 -34 31 -34 31 -9 3 15
-16 27 -34 27 -38 0 -4 -13 8 -30 26 -16 18 -30 36 -30 41 0 5 -12 23 -27 41
-15 17 -24 23 -20 14 3 -10 1 -20 -5 -24 -6 -4 -8 -3 -4 4 3 6 -1 17 -9 25
-11 12 -12 17 -2 21 6 4 2 4 -11 2 -20 -4 -21 -2 -10 12 10 12 10 14 1 8 -8
-4 -13 -1 -13 9 0 9 -4 14 -9 10 -6 -3 -15 4 -21 15 -6 11 -15 18 -21 15 -8
-5 -14 10 -6 18 5 6 -48 54 -55 50 -5 -2 -8 3 -8 12 0 9 -5 13 -10 10 -6 -3
-10 1 -10 9 0 9 -5 16 -11 16 -5 0 -7 5 -4 10 3 6 -1 10 -9 10 -9 0 -16 4 -16
9 0 5 -9 13 -20 16 -11 4 -18 10 -15 15 7 11 -20 31 -30 22 -5 -4 -5 -1 -1 6
4 6 2 12 -4 12 -6 0 -8 5 -5 10 3 6 -1 10 -9 10 -10 0 -16 9 -16 21 0 18 -2
19 -15 9 -13 -11 -14 -10 -8 5 5 15 3 17 -12 12 -16 -7 -16 -5 -4 10 7 10 9
15 5 11 -5 -5 -15 1 -23 12 -8 11 -21 20 -29 20 -8 0 -14 5 -14 11 0 5 5 7 12
3 7 -4 8 -3 4 5 -4 6 -12 9 -17 6 -5 -4 -9 -1 -9 5 0 6 -4 9 -9 5 -5 -3 -13 0
-17 6 -4 8 -3 9 4 5 23 -14 12 6 -22 40 -18 18 -37 30 -41 26 -5 -4 -5 -1 0 7
10 18 -15 33 -33 19 -10 -9 -10 -13 0 -19 7 -4 13 -18 13 -31 0 -13 5 -23 12
-23 6 0 15 -4 20 -9 5 -5 2 -6 -6 -1 -9 5 -12 3 -9 -6 3 -8 11 -13 17 -11 7 1
10 -2 6 -8 -3 -5 -1 -10 5 -10 6 0 8 -4 5 -10 -3 -5 0 -10 7 -10 9 0 9 -3 -2
-10 -12 -8 -12 -10 5 -10 17 0 17 -2 5 -10 -13 -8 -12 -10 4 -10 11 0 17 -3
13 -6 -3 -4 1 -13 9 -21 8 -8 11 -19 8 -25 -4 -7 -2 -8 4 -4 8 5 12 0 12 -12
0 -11 7 -23 16 -26 9 -3 14 -11 12 -18 -3 -7 7 -23 21 -36 14 -13 21 -21 14
-18 -6 4 -14 2 -18 -4 -3 -6 3 -10 16 -10 16 0 20 -5 16 -20 -4 -15 0 -20 14
-20 10 0 19 -4 19 -10 0 -5 -8 -7 -17 -3 -16 5 -16 4 -3 -8 8 -8 21 -21 29
-29 12 -13 13 -13 6 0 -6 12 -5 12 5 4 6 -7 13 -24 13 -38 1 -16 7 -24 14 -22
16 6 27 -10 13 -19 -11 -7 12 -35 29 -35 6 0 11 -5 11 -11 0 -5 -4 -7 -10 -4
-6 3 -7 -1 -4 -9 3 -9 10 -13 15 -10 5 3 9 -2 9 -10 0 -9 5 -16 10 -16 6 0 10
-5 10 -11 0 -5 -4 -7 -10 -4 -16 10 -11 -1 7 -16 14 -12 16 -12 8 0 -5 10 -4
12 3 7 7 -4 12 -19 12 -34 0 -22 2 -24 11 -12 9 12 10 11 6 -7 -3 -12 -2 -22
2 -21 3 0 13 0 21 -1 13 -1 13 -2 0 -11 -13 -8 -12 -10 4 -10 15 0 17 -6 14
-29 -4 -26 -2 -28 13 -21 14 8 16 6 12 -10 -4 -14 0 -20 11 -20 14 0 15 -3 5
-22 -11 -21 -11 -22 4 -10 14 12 16 11 12 -8 -4 -19 -2 -20 12 -8 12 9 15 9 9
1 -4 -8 -2 -13 6 -13 8 0 9 -3 3 -8 -5 -4 -11 -13 -13 -21 -3 -12 -1 -12 14 0
10 8 15 9 11 2 -4 -6 0 -18 8 -26 8 -9 15 -24 15 -34 0 -15 2 -16 11 -3 9 12
10 11 6 -7 -3 -16 0 -23 9 -23 8 0 14 -6 14 -13 0 -7 9 -18 20 -25 12 -7 18
-17 14 -23 -3 -6 2 -17 12 -24 17 -13 17 -16 4 -25 -12 -8 -11 -10 6 -10 13 0
25 -10 32 -26 7 -14 17 -22 23 -18 7 4 7 -1 -1 -16 -8 -15 -8 -20 -1 -16 6 4
11 2 11 -4 0 -6 5 -8 13 -4 7 5 6 0 -3 -11 -9 -11 -10 -16 -2 -11 8 5 12 0 12
-16 0 -19 2 -20 11 -8 9 12 10 10 6 -8 -5 -20 -3 -21 10 -11 13 11 15 9 13
-11 -3 -38 -1 -43 13 -32 10 8 13 6 14 -10 1 -12 14 -32 29 -45 15 -13 21 -23
14 -23 -8 0 1 -12 18 -26 18 -15 32 -33 32 -41 0 -8 4 -12 9 -9 5 4 7 -3 4
-14 -4 -14 0 -20 11 -20 11 0 14 -5 10 -12 -5 -8 -2 -9 11 -4 16 6 16 4 4 -11
-9 -11 -10 -14 -1 -9 6 4 12 2 12 -3 0 -22 2 -26 17 -43 9 -10 20 -15 24 -12
5 3 6 -1 3 -9 -3 -8 0 -18 7 -23 8 -5 10 -3 4 6 -5 9 -4 11 4 6 7 -4 11 -15 9
-24 -2 -9 7 -26 20 -39 24 -25 38 -30 26 -11 -4 6 -3 8 4 5 5 -4 8 -17 4 -29
-4 -16 -2 -19 8 -13 10 6 12 4 7 -8 -4 -12 -2 -14 10 -10 11 4 14 2 9 -5 -4
-7 -2 -12 4 -12 6 0 9 -3 7 -7 -7 -11 19 -33 28 -25 4 4 2 -4 -5 -17 -6 -13
-7 -21 -2 -17 14 8 44 -23 36 -36 -4 -6 -3 -9 2 -6 5 3 18 -4 29 -15 11 -11
13 -16 5 -11 -12 7 -12 3 2 -16 9 -14 20 -24 25 -23 5 1 15 -8 23 -20 12 -21
12 -21 -6 -8 -10 8 4 -7 31 -33 28 -26 44 -45 38 -41 -7 3 -13 2 -13 -3 0 -6
7 -13 16 -16 9 -4 14 -13 10 -22 -3 -8 -2 -12 4 -9 6 3 10 1 10 -5 0 -6 4 -9
9 -6 9 6 26 -22 23 -36 -1 -5 3 -8 9 -8 5 0 7 -5 3 -12 -4 -6 -3 -8 3 -5 6 4
27 -12 47 -34 20 -23 30 -39 21 -36 -8 4 -15 2 -15 -3 0 -6 10 -10 23 -10 18
0 19 -2 7 -10 -12 -8 -10 -10 10 -10 18 0 21 -3 12 -9 -11 -7 -11 -9 2 -14 9
-4 14 -12 12 -19 -1 -7 -1 -10 1 -5 3 4 9 7 14 7 6 0 7 -4 4 -10 -3 -5 -1 -10
5 -10 6 0 8 -5 5 -10 -3 -6 1 -13 9 -16 9 -3 16 -12 16 -20 0 -8 6 -14 13 -14
20 0 47 -66 33 -81 -7 -9 -5 -9 7 0 10 8 14 19 10 25 -5 7 2 1 14 -13 12 -14
19 -29 16 -34 -3 -6 -1 -7 5 -3 6 3 13 3 16 -2 2 -4 -4 -14 -16 -21 -11 -7
-17 -8 -13 -2 3 6 1 11 -5 11 -6 0 -16 5 -23 10 -7 6 -21 18 -32 26 -11 9 -14
12 -6 8 10 -5 12 -3 7 5 -5 7 -14 10 -22 7 -9 -3 -11 0 -7 12 6 15 5 16 -13 2
-10 -8 -16 -11 -12 -6 9 10 -11 51 -20 42 -3 -4 -12 4 -19 16 -7 13 -12 17
-13 11 0 -7 -5 -13 -10 -13 -6 0 -9 3 -9 8 1 4 1 16 0 27 -1 17 -3 18 -11 5
-7 -11 -10 -11 -10 -2 0 8 -5 10 -12 6 -8 -5 -7 0 2 11 14 17 13 17 -8 11 -12
-4 -22 -4 -21 1 1 4 1 15 0 23 -1 13 -2 13 -11 0 -8 -13 -10 -12 -10 4 0 12
-5 16 -16 12 -8 -3 -13 -2 -10 2 3 5 -4 14 -14 22 -10 8 -16 18 -13 24 4 5 -1
7 -10 3 -10 -3 -17 -2 -17 4 0 6 -7 17 -15 25 -8 9 -15 13 -15 9 0 -3 -6 0
-14 7 -7 7 -11 20 -8 28 3 8 2 12 -3 8 -12 -11 -45 11 -45 30 0 15 -2 15 -10
2 -8 -12 -10 -11 -10 7 0 14 -10 26 -30 35 -17 7 -30 21 -30 30 0 10 -5 18
-11 18 -7 0 -18 8 -26 18 -9 10 -12 11 -7 2 6 -12 5 -13 -7 -2 -12 11 -12 14
1 23 13 9 13 10 0 7 -18 -3 -60 31 -60 50 0 7 -5 10 -11 7 -6 -4 -13 3 -16 15
-4 16 -8 18 -14 8 -7 -10 -9 -9 -9 5 0 9 -5 17 -11 17 -5 0 -7 4 -4 10 4 6 -1
7 -11 3 -13 -5 -16 -3 -11 9 8 22 -3 30 -21 15 -13 -9 -14 -9 -8 1 4 7 2 12
-4 12 -6 0 -8 5 -5 10 3 6 -1 10 -10 10 -9 0 -13 5 -10 10 3 6 -1 10 -10 10
-9 0 -13 5 -10 10 3 6 0 10 -8 10 -8 0 -18 7 -21 16 -3 8 -11 12 -17 8 -7 -4
-7 1 1 16 7 14 8 20 1 16 -12 -8 -92 69 -83 80 4 4 -1 4 -10 1 -12 -4 -15 -2
-11 9 3 8 -1 14 -10 14 -8 0 -21 8 -28 18 -13 16 -13 16 6 2 19 -14 19 -14 6
3 -9 11 -22 16 -35 12 -12 -3 -15 -2 -8 1 18 8 15 27 -4 20 -8 -3 -12 -2 -9 4
7 12 -34 60 -52 60 -8 0 -11 5 -8 10 3 6 1 10 -4 10 -6 0 -11 7 -11 16 0 8 -4
12 -10 9 -5 -3 -10 1 -10 9 0 14 -10 20 -30 18 -3 0 -7 9 -7 21 -1 12 -6 23
-12 25 -5 2 -19 12 -32 23 -12 10 -26 19 -31 19 -4 0 -8 7 -8 15 0 14 -13 20
-34 16 -5 -1 -4 5 4 13 11 14 9 16 -11 16 -19 0 -21 2 -9 10 12 8 10 10 -10
10 -14 0 -20 4 -14 8 7 5 5 14 -9 27 -11 11 -17 14 -13 8 4 -7 5 -13 2 -13 -3
0 -10 10 -17 21 -9 17 -8 20 2 14 8 -6 10 -4 5 4 -5 7 -15 10 -23 7 -8 -3 -11
-1 -8 4 3 6 -1 13 -9 16 -9 3 -16 13 -16 21 0 10 -6 13 -16 9 -12 -5 -14 -1
-9 15 5 15 4 19 -4 15 -6 -4 -11 -2 -11 4 0 7 -6 10 -14 7 -10 -4 -13 1 -10
16 2 12 2 17 -2 10 -8 -17 -44 16 -37 33 3 9 -2 14 -16 14 -14 0 -21 6 -21 19
0 11 -9 23 -20 26 -11 3 -20 11 -20 16 0 6 4 8 8 5 5 -3 9 1 9 8 0 8 -9 11
-25 8 -16 -3 -23 -1 -19 6 4 5 -7 25 -25 43 -18 19 -31 38 -30 43 2 5 -5 6
-14 2 -11 -4 -15 -2 -11 8 3 8 -2 16 -14 19 -10 3 -19 13 -19 22 0 9 -4 13
-10 10 -9 -6 -14 8 -11 28 1 5 -2 6 -7 3 -5 -3 -14 4 -22 14 -8 10 -18 16 -23
13 -6 -4 -8 2 -5 15 4 15 2 20 -11 17 -10 -2 -18 3 -19 11 -1 8 -3 21 -4 28
-1 11 -6 12 -20 5 -10 -5 -18 -6 -17 -2 4 26 -2 42 -15 37 -11 -4 -13 1 -10
18 2 13 2 17 -2 10 -3 -6 -10 -9 -15 -6 -6 4 -6 11 1 19 9 11 7 12 -9 8 -17
-4 -21 -1 -21 17 0 15 -5 20 -14 17 -8 -3 -17 1 -20 9 -4 10 -2 12 6 8 7 -4 8
-3 4 4 -4 7 -14 12 -23 12 -9 0 -13 6 -10 15 4 8 1 17 -5 21 -7 4 -8 3 -4 -4
4 -7 3 -12 -1 -12 -14 0 -34 40 -26 53 4 7 -1 6 -11 -2 -9 -8 -16 -10 -15 -5
4 22 -2 35 -13 28 -7 -5 -9 -2 -6 7 3 9 -5 26 -20 40 -24 23 -25 23 -13 2 11
-22 8 -28 -13 -24 -5 1 -4 -4 2 -12 7 -8 8 -18 4 -22 -4 -5 -1 -4 7 0 11 6 13
4 8 -8 -3 -8 1 -21 9 -27 8 -7 14 -21 14 -32 0 -11 4 -16 11 -12 7 4 7 -1 -1
-16 -7 -12 -8 -20 -3 -17 5 3 15 2 23 -4 8 -5 10 -9 4 -9 -6 0 -11 -6 -11 -14
0 -8 6 -12 13 -9 9 3 11 -2 7 -16 -3 -12 -1 -21 6 -21 6 0 10 -3 10 -7 -4 -22
2 -33 14 -27 7 5 7 2 -2 -10 -8 -9 -10 -16 -5 -15 20 4 24 -2 14 -21 -9 -16
-8 -19 7 -13 13 5 15 3 10 -11 -5 -13 -3 -17 7 -13 10 4 13 -3 12 -27 -1 -25
2 -32 13 -28 10 4 13 1 8 -10 -3 -10 0 -19 9 -22 8 -3 14 -17 14 -31 0 -14 5
-25 11 -25 6 0 9 -6 6 -14 -3 -8 1 -20 9 -26 8 -7 14 -19 14 -27 0 -9 5 -11
12 -7 8 5 7 0 -2 -11 -8 -10 -10 -16 -5 -13 6 3 15 0 22 -7 10 -11 10 -14 0
-18 -9 -3 -9 -8 2 -18 8 -8 11 -9 8 -3 -3 6 -1 11 6 11 7 0 13 -13 14 -29 1
-15 8 -38 15 -50 7 -13 11 -30 10 -38 -2 -12 -1 -12 6 -2 12 18 37 -12 28 -34
-5 -12 -2 -15 10 -10 15 6 15 4 3 -11 -9 -11 -10 -14 -1 -9 8 5 12 -1 12 -21
0 -22 2 -25 10 -13 8 12 10 11 10 -7 0 -13 5 -23 11 -23 8 0 7 -6 -2 -17 -10
-11 -10 -14 -1 -9 7 4 12 2 12 -4 0 -6 5 -8 13 -4 7 5 6 0 -3 -11 -9 -11 -10
-16 -2 -11 8 5 12 0 12 -14 0 -12 5 -18 10 -15 6 3 10 0 10 -9 0 -8 6 -17 13
-19 10 -4 10 -6 0 -6 -7 -1 -13 -5 -13 -11 0 -5 3 -9 8 -9 26 4 32 -2 22 -21
-6 -11 -7 -20 -3 -19 4 1 15 1 23 0 13 -1 13 -2 0 -11 -13 -8 -12 -10 4 -10
15 0 16 -3 7 -14 -9 -11 -9 -16 0 -22 8 -4 9 -3 5 4 -4 7 -2 12 3 12 6 0 11
-7 11 -15 0 -8 5 -15 10 -15 6 0 10 -5 10 -11 0 -5 -6 -7 -12 -3 -9 5 -9 3 1
-9 7 -9 18 -14 24 -10 7 4 8 0 4 -11 -5 -11 0 -24 11 -34 10 -10 13 -15 7 -12
-6 3 -2 -3 8 -12 12 -11 17 -25 13 -34 -6 -15 -4 -15 11 -3 10 7 15 9 10 4 -4
-4 1 -17 10 -27 16 -18 16 -18 -3 -11 -14 5 -12 0 8 -19 16 -14 28 -31 28 -38
0 -6 8 -19 18 -28 10 -10 12 -13 5 -8 -10 6 -12 4 -7 -8 3 -9 12 -16 20 -16 8
0 11 -6 7 -17 -3 -10 -3 -15 2 -11 14 13 37 -21 30 -44 -5 -18 -4 -20 4 -8 10
15 12 13 15 -12 1 -7 9 -12 18 -12 14 1 15 -3 7 -23 -8 -21 -6 -26 11 -30 11
-3 17 -9 14 -14 -3 -5 0 -9 5 -9 6 0 11 -7 11 -15 0 -8 9 -20 19 -27 16 -10
18 -15 8 -27 -9 -12 -9 -13 1 -7 7 4 12 2 12 -4 0 -6 5 -8 12 -4 7 5 8 3 3 -5
-4 -8 2 -21 14 -32 12 -11 19 -24 16 -30 -4 -5 -1 -9 5 -9 6 0 8 -5 4 -12 -5
-8 -2 -9 10 -5 9 4 15 3 12 -2 -3 -5 1 -14 10 -21 8 -7 12 -20 9 -28 -4 -10 0
-12 11 -8 14 5 15 4 4 -9 -10 -12 -9 -15 5 -15 10 0 15 -3 12 -6 -4 -4 3 -15
14 -25 11 -9 20 -20 20 -23 -3 -20 0 -26 9 -21 9 6 15 -16 11 -39 -1 -5 6 -6
15 -2 11 4 15 2 11 -8 -3 -8 2 -20 11 -28 13 -11 15 -11 7 2 -8 13 -7 13 8 1
18 -15 23 -26 7 -16 -5 3 -10 1 -10 -4 0 -6 5 -11 11 -11 6 0 9 -7 5 -15 -3
-8 0 -14 7 -12 7 1 11 -4 9 -12 -2 -9 3 -11 13 -7 9 3 13 2 10 -4 -3 -6 -1
-10 4 -10 6 0 11 -9 11 -19 0 -10 7 -22 16 -25 8 -3 13 -10 9 -15 -3 -5 3 -12
14 -16 13 -4 18 -13 16 -25 -2 -13 2 -20 11 -20 8 0 12 -4 9 -10 -3 -5 0 -10
7 -10 10 0 9 -3 -2 -11 -11 -8 -8 -9 15 -5 17 4 26 3 20 -1 -12 -10 -19 -44
-8 -42 4 1 15 1 23 0 13 -1 13 -2 0 -11 -12 -8 -12 -10 5 -10 15 0 17 -2 7 -9
-10 -6 -6 -10 14 -15 22 -6 25 -9 13 -17 -11 -7 -11 -9 0 -9 8 0 11 -6 7 -16
-3 -8 -2 -12 4 -9 6 3 14 -5 20 -19 5 -14 18 -31 30 -38 11 -7 20 -20 20 -29
0 -22 26 -43 41 -33 8 4 9 3 5 -5 -4 -6 -2 -18 4 -26 6 -8 8 -20 4 -26 -4 -8
-3 -9 4 -5 7 4 12 2 12 -4 0 -6 4 -9 9 -6 5 3 11 -1 14 -9 4 -10 1 -12 -11 -9
-15 5 -15 4 1 -6 9 -6 15 -15 12 -21 -4 -5 4 -9 17 -9 16 0 19 -3 10 -9 -10
-6 -8 -10 8 -14 15 -4 21 -11 17 -21 -3 -8 1 -17 9 -20 8 -3 14 -13 14 -21 0
-9 4 -14 8 -11 4 2 14 -5 22 -17 12 -21 12 -21 -6 -7 -18 14 -18 14 -5 -3 8
-10 20 -16 28 -13 8 3 12 2 8 -3 -3 -5 -2 -11 2 -14 5 -2 1 -2 -7 0 -8 2 0
-10 17 -26 18 -16 33 -34 33 -39 0 -6 9 -16 20 -22 11 -6 20 -16 20 -23 0 -7
-4 -6 -10 3 -7 11 -10 12 -10 2 0 -8 9 -16 20 -19 11 -3 20 -12 20 -20 0 -9 5
-11 13 -7 7 5 7 1 -3 -12 -8 -10 -10 -16 -6 -12 5 5 16 -1 23 -12 8 -11 19
-17 25 -14 6 4 6 -2 -1 -15 -9 -17 -9 -20 3 -15 9 3 17 -3 21 -15 3 -12 11
-21 16 -21 5 0 9 -7 9 -16 0 -8 5 -12 10 -9 9 5 15 -16 11 -38 -1 -5 3 -6 9
-2 5 3 10 -1 10 -9 0 -9 5 -16 10 -16 6 0 10 -7 10 -15 0 -8 7 -15 16 -15 10
0 14 -5 10 -16 -4 -10 -2 -13 6 -8 7 5 9 2 5 -9 -4 -11 -2 -14 7 -11 14 5 32
-12 38 -36 2 -8 12 -21 23 -28 l20 -13 -20 5 -20 6 20 -16 c11 -8 19 -19 18
-24 -1 -4 5 -14 15 -22 15 -12 16 -11 3 5 -12 15 -12 17 3 11 19 -7 21 -30 4
-38 -7 -3 -2 -3 10 0 21 5 23 4 13 -14 -9 -17 -8 -19 8 -15 11 3 21 -2 25 -12
4 -11 2 -14 -7 -9 -6 4 -3 -3 8 -16 36 -43 43 -49 49 -43 6 6 10 -21 7 -41 -1
-5 5 -6 14 -2 9 3 14 2 11 -2 -3 -5 4 -15 15 -22 10 -8 19 -22 19 -32 0 -10 7
-18 16 -18 8 0 12 -5 9 -10 -3 -5 1 -10 11 -10 11 0 15 -6 11 -20 -3 -10 -2
-19 2 -18 21 2 29 -5 26 -23 -4 -17 -2 -19 10 -9 12 10 15 9 15 -9 0 -11 5
-21 10 -21 19 0 10 -28 -15 -44 -13 -9 -28 -16 -32 -16 -4 0 -1 5 7 10 8 5 11
10 5 10 -17 -1 -45 -27 -37 -35 4 -5 -1 -5 -10 -2 -10 4 -18 3 -18 -2 0 -5 -8
-8 -17 -7 -10 0 -17 -4 -16 -11 2 -8 -4 -10 -14 -6 -10 4 -14 2 -9 -5 3 -6 1
-14 -5 -18 -8 -4 -9 -3 -5 5 5 8 0 10 -18 7 -13 -2 -27 1 -30 7 -3 7 -3 2 0
-10 5 -22 -8 -26 -33 -10 -9 5 -11 3 -7 -6 4 -11 -2 -14 -21 -12 -21 3 -24 1
-15 -10 9 -11 7 -12 -9 -8 -14 3 -21 1 -21 -8 0 -12 -2 -12 -9 0 -7 12 -12 11
-30 -1 -11 -8 -18 -19 -13 -24 4 -4 0 -3 -9 4 -12 9 -18 9 -27 0 -7 -7 -12 -9
-12 -4 0 4 -7 1 -15 -7 -8 -9 -26 -14 -40 -13 -14 2 -25 -2 -25 -8 0 -6 -5 -4
-10 4 -8 12 -10 12 -10 -5 0 -17 -2 -18 -10 -5 -9 13 -12 12 -25 -4 -13 -18
-20 -15 -16 7 1 4 -8 2 -18 -5 -11 -7 -17 -17 -13 -23 3 -5 -1 -4 -10 3 -9 7
-19 9 -22 4 -3 -5 -21 -8 -40 -7 -21 2 -40 -3 -47 -11 -7 -9 -20 -12 -32 -8
-11 3 -17 2 -14 -3 3 -5 -7 -7 -25 -5 -23 4 -29 2 -23 -8 6 -10 4 -11 -6 -4
-8 5 -21 9 -29 9 -8 0 -22 4 -30 10 -13 8 -13 7 -1 -8 17 -22 7 -34 -14 -17
-12 10 -15 10 -15 0 0 -8 -3 -10 -7 -7 -3 4 -13 1 -21 -6 -13 -9 -14 -9 -8 0
4 7 2 13 -3 13 -6 0 -11 -6 -11 -12 0 -9 -3 -9 -9 1 -7 11 -10 10 -14 -5 -5
-19 -5 -19 -6 0 -1 19 -2 19 -21 1 -18 -17 -20 -17 -14 -2 5 15 3 16 -17 8
-13 -5 -23 -13 -22 -18 1 -5 -5 -10 -13 -10 -10 0 -11 4 -4 11 5 5 10 15 10
21 0 5 -4 4 -9 -4 -8 -13 -12 -13 -27 0 -11 9 -15 9 -10 2 9 -16 -6 -17 -20
-3 -7 7 -11 6 -11 -4 0 -8 4 -13 8 -10 4 2 10 0 13 -5 7 -10 -13 -9 -30 2 -6
3 -14 4 -18 0 -9 -9 -87 -10 -93 -1 -2 5 -10 5 -16 1 -19 -12 -131 -13 -144
-1 -10 8 -12 7 -8 -3 4 -10 -3 -14 -25 -14 -16 0 -30 2 -30 6 0 3 -11 5 -24 5
-14 0 -22 -4 -19 -11 3 -5 0 -4 -8 2 -17 17 -32 17 -23 1 5 -8 0 -7 -11 2 -17
14 -18 13 -11 -4 6 -19 6 -19 -12 -3 -24 22 -38 22 -21 0 11 -15 10 -14 -9 1
-16 14 -22 15 -22 6 0 -10 -3 -11 -11 -3 -7 7 -21 8 -40 3 -18 -5 -29 -5 -29
1 0 6 -5 7 -10 4 -6 -4 -7 -11 -4 -17 4 -7 2 -8 -5 -4 -6 4 -9 12 -6 17 4 5 1
9 -4 9 -6 0 -11 -8 -11 -17 -1 -16 -2 -16 -11 1 -9 15 -13 16 -20 5 -6 -10 -9
-11 -9 -1 0 6 -5 12 -11 12 -5 0 -7 -5 -3 -11 5 -8 1 -8 -14 0 -25 13 -35 14
-27 2 3 -5 1 -13 -5 -16 -6 -4 -10 -3 -9 2 4 22 -2 25 -16 7 -8 -10 -15 -14
-14 -9 3 21 -2 23 -31 15 -16 -5 -30 -5 -30 -1 0 4 -7 8 -15 8 -11 0 -12 -3
-3 -14 10 -12 7 -12 -15 -2 -15 7 -24 16 -20 22 4 6 1 7 -8 1 -19 -12 -98 -14
-105 -3 -3 5 -11 6 -17 2 -18 -12 -31 -10 -47 7 -8 9 -11 11 -7 4 4 -7 3 -15
-3 -19 -5 -3 -10 -1 -10 6 0 8 -5 7 -17 -2 -11 -10 -14 -10 -9 -1 9 15 1 15
-27 0 -21 -10 -21 -10 -7 7 14 17 14 17 -7 7 -12 -7 -29 -9 -37 -6 -10 4 -16
1 -16 -7 0 -7 -3 -9 -6 -6 -4 4 -1 13 6 22 16 20 6 19 -14 -1 -15 -14 -16 -14
-16 1 0 9 -5 13 -10 10 -6 -4 -7 -11 -4 -17 4 -7 2 -8 -5 -4 -6 4 -20 2 -29
-5 -16 -13 -16 -12 0 6 16 19 16 20 -12 20 -16 1 -26 -3 -24 -7 3 -4 0 -8 -5
-8 -6 0 -11 5 -11 11 0 8 -4 8 -14 0 -11 -9 -15 -9 -20 1 -5 10 -7 10 -12 1
-3 -7 -12 -9 -20 -6 -7 3 -11 10 -7 17 5 7 2 7 -8 -1 -14 -11 -61 -9 -81 3 -4
3 -8 0 -8 -6 0 -7 -6 -8 -19 0 -25 13 -34 13 -26 0 3 -6 -1 -7 -9 -4 -9 3 -13
10 -10 15 3 5 -2 6 -10 3 -9 -3 -13 -11 -10 -18 3 -6 -1 -3 -8 6 -14 16 -43
18 -83 3 -14 -5 -16 -4 -6 3 10 7 5 11 -18 14 -18 3 -34 0 -38 -5 -3 -5 -9 -3
-14 4 -6 11 -11 11 -21 1 -14 -14 -32 -16 -24 -3 4 5 -3 7 -14 4 -19 -5 -19
-6 -4 -18 10 -6 14 -17 10 -23 -5 -8 -1 -10 10 -5 12 4 15 3 10 -5 -4 -7 -1
-12 9 -12 12 0 15 -5 11 -17 -4 -10 -4 -15 -1 -11 7 7 61 -43 57 -54 -1 -4 5
-5 13 -2 11 5 13 2 8 -12 -4 -12 -3 -15 5 -10 7 4 12 2 12 -3 0 -6 7 -11 17
-11 9 0 13 -3 10 -7 -4 -3 7 -14 23 -25 17 -10 29 -23 28 -30 -2 -7 3 -12 10
-11 6 2 12 -4 12 -12 0 -13 6 -17 27 -14 10 1 25 -30 18 -40 -3 -5 6 -8 20 -6
14 1 28 -2 32 -8 4 -6 1 -7 -7 -2 -8 5 -11 3 -8 -5 2 -7 15 -20 29 -28 23 -13
23 -13 5 2 -11 9 -15 16 -8 16 6 0 17 -9 25 -20 8 -11 18 -17 23 -12 4 4 3 -1
-4 -10 -12 -14 -10 -16 12 -14 22 3 24 1 15 -15 -8 -15 -6 -17 7 -12 10 4 15
2 11 -3 -3 -6 4 -11 16 -11 12 -1 29 -11 38 -22 9 -11 20 -17 24 -13 5 4 5 -1
2 -10 -3 -10 -1 -20 5 -24 7 -4 8 -3 4 4 -4 7 -2 12 3 12 6 0 11 -7 11 -16 0
-8 4 -13 8 -10 5 3 16 -6 26 -19 10 -14 23 -22 28 -19 6 4 13 3 17 -2 12 -17
54 -49 46 -35 -6 10 -4 12 4 7 7 -5 10 -15 6 -24 -3 -9 -3 -13 1 -9 4 4 22 -4
40 -18 19 -14 32 -20 30 -13 -1 7 -1 10 1 5 3 -4 9 -5 14 -2 5 4 6 -2 2 -11
-4 -12 -3 -15 5 -10 7 4 12 2 12 -4 0 -6 6 -10 13 -9 19 4 67 -23 67 -37 0 -8
6 -11 17 -7 10 4 14 2 10 -4 -4 -6 0 -16 8 -23 13 -11 15 -10 9 6 -5 18 -5 18
10 0 9 -11 16 -16 16 -11 0 4 10 -3 22 -17 15 -15 33 -24 50 -23 21 1 25 -2
16 -12 -8 -11 -7 -12 7 -7 14 6 16 4 10 -7 -8 -12 -6 -12 9 0 9 8 16 10 15 5
-5 -27 1 -36 16 -24 12 10 15 10 15 0 0 -7 7 -10 16 -6 13 5 14 4 6 -7 -12
-14 -10 -15 44 -19 24 -2 25 -3 7 -16 -17 -14 -17 -14 1 -8 10 3 25 1 32 -5 8
-6 20 -9 29 -5 8 3 14 0 12 -7 -1 -7 7 -11 20 -10 17 2 21 -1 16 -15 -6 -15
-5 -16 12 -2 10 8 16 10 12 4 -8 -14 9 -22 40 -19 15 1 25 -5 29 -18 5 -16 8
-17 15 -6 7 11 9 11 9 1 0 -7 4 -11 9 -7 5 3 13 0 17 -6 4 -8 9 -7 15 2 7 11
9 11 9 1 0 -8 5 -10 12 -6 10 6 10 4 0 -8 -11 -14 -10 -16 5 -13 10 1 27 -5
38 -14 19 -15 19 -15 6 2 -13 17 -13 17 12 6 15 -7 27 -16 27 -20 0 -4 13 -6
29 -5 22 2 28 -2 23 -14 -5 -13 -4 -13 13 0 10 8 16 10 12 3 -4 -6 -3 -14 3
-18 5 -3 10 0 11 7 0 7 4 4 9 -7 6 -14 9 -15 10 -5 0 12 3 11 11 -3 7 -12 17
-16 31 -11 16 5 19 3 12 -7 -6 -10 -3 -10 11 1 13 11 16 11 11 2 -6 -10 -2
-13 16 -10 14 1 33 -3 42 -11 9 -7 25 -11 36 -8 11 3 23 0 27 -5 3 -6 1 -8 -5
-4 -6 3 -13 2 -16 -3 -7 -11 13 -9 32 2 7 5 15 2 18 -8 6 -13 8 -14 15 -3 6 8
9 9 9 2 0 -7 7 -15 16 -18 8 -3 12 -2 9 4 -3 6 -1 10 4 10 6 0 11 -5 11 -11 0
-8 4 -8 13 0 10 8 17 7 25 -1 7 -7 12 -8 12 -3 0 4 10 0 22 -11 12 -10 18 -13
14 -6 -4 6 -2 12 3 12 6 0 11 -4 11 -9 0 -5 7 -12 16 -15 10 -4 13 -2 8 6 -5
8 -2 9 10 5 10 -4 20 -7 22 -7 3 0 2 -5 -1 -11 -4 -6 2 -5 13 2 17 10 23 10
37 -4 18 -19 30 -23 20 -7 -3 6 -2 10 3 10 6 0 13 -7 16 -16 3 -9 11 -12 18
-8 18 12 52 13 59 2 7 -11 51 -20 44 -8 -7 12 23 6 37 -8 8 -8 17 -8 31 0 14
7 22 7 27 -2 6 -9 13 -9 28 -1 15 8 23 8 28 -1 5 -7 3 -8 -6 -3 -9 5 -11 4 -6
-4 5 -8 12 -9 19 -3 7 5 29 8 50 5 25 -2 36 0 32 7 -10 16 1 12 16 -7 12 -14
12 -16 0 -8 -10 5 -12 4 -7 -3 10 -17 26 -15 26 3 0 8 5 15 11 15 5 0 8 -4 4
-9 -3 -5 -1 -12 4 -15 5 -3 11 1 15 9 3 8 11 15 18 14 10 0 10 -2 1 -6 -20 -7
-15 -22 6 -20 11 0 17 5 15 9 -3 4 -1 8 5 8 5 0 12 -6 14 -12 4 -10 6 -10 6 0
1 6 6 12 12 12 5 0 8 -4 4 -9 -3 -5 -1 -13 5 -16 6 -4 9 -3 8 2 -2 4 2 8 7 8
5 0 9 -3 8 -7 -2 -5 2 -8 7 -8 6 0 10 8 11 18 0 10 3 12 6 5 7 -20 26 -15 19
5 -5 14 -3 13 10 -3 11 -14 18 -16 21 -7 7 18 23 15 24 -5 0 -11 3 -13 6 -5 2
6 9 12 14 12 6 0 7 -6 4 -13 -4 -6 0 -4 8 6 15 17 33 24 23 8 -3 -5 10 -7 29
-5 25 2 34 0 30 -9 -4 -7 0 -4 9 7 17 21 54 27 75 12 11 -8 13 -8 8 0 -4 7 11
11 46 11 81 1 89 2 82 13 -3 6 1 7 9 4 9 -3 13 -11 10 -18 -3 -6 2 -2 10 8 15
18 21 15 16 -9 -1 -5 7 -2 17 8 15 13 22 14 32 4 10 -9 11 -9 6 4 -5 13 -1 15
19 12 14 -3 26 -1 26 4 0 5 9 9 19 9 11 0 17 -4 15 -8 -9 -14 36 -3 49 12 10
12 9 12 -5 2 -12 -10 -18 -10 -24 -1 -4 7 -3 9 4 5 6 -3 14 -2 17 4 5 8 11 7
21 -1 10 -8 14 -8 14 0 0 6 5 11 11 11 5 0 7 -4 4 -10 -3 -6 1 -7 9 -4 9 3 13
11 10 16 -4 6 0 7 12 1 28 -13 57 -10 61 7 4 13 3 13 -7 0 -10 -13 -11 -13 -7
0 2 9 15 14 38 13 19 0 37 4 41 11 5 7 8 6 8 -3 0 -11 4 -10 16 5 8 10 13 14
10 7 -9 -16 24 -10 35 8 7 12 9 12 9 -1 0 -12 2 -12 9 -2 4 8 12 14 17 15 5 1
8 6 6 10 -1 5 2 6 8 2 6 -3 8 -11 5 -16 -4 -5 -1 -9 4 -9 6 0 11 10 12 23 0
12 3 16 6 9 4 -10 8 -10 21 0 13 11 14 11 8 0 -7 -11 -4 -11 12 -1 12 7 18 17
15 22 -3 5 0 7 8 5 8 -3 13 -11 11 -17 -1 -7 2 -10 8 -6 6 3 8 10 6 14 -3 4 4
13 16 20 11 7 17 8 13 2 -3 -6 -2 -11 3 -11 5 0 14 10 20 22 6 13 11 17 11 9
1 -11 4 -11 18 0 11 9 14 10 9 2 -5 -9 -2 -11 9 -7 11 5 13 10 5 18 -7 10 0
12 30 11 31 -1 37 1 29 11 -8 10 -6 12 10 9 12 -2 21 0 21 5 0 4 11 7 25 5 14
-1 25 2 25 6 0 5 -4 9 -10 9 -5 0 -10 4 -10 8 0 4 9 8 19 8 11 0 17 -4 14 -9
-3 -5 6 -1 21 8 14 10 26 21 26 25 0 5 10 6 23 3 18 -4 19 -3 7 6 -13 9 -12
11 3 11 12 0 16 4 11 13 -5 8 -2 7 10 -2 15 -13 18 -12 22 6 4 14 12 19 25 16
13 -4 19 0 19 11 0 9 5 16 11 16 5 0 7 -5 3 -12 -4 -7 -3 -8 4 -4 7 4 12 15
12 24 0 15 2 15 10 2 9 -14 14 -7 11 13 -1 5 3 6 8 2 6 -3 21 1 34 10 13 8 27
12 32 8 4 -5 5 -2 1 5 -11 19 3 35 19 22 10 -9 16 -6 25 10 7 13 17 19 27 16
11 -5 14 -2 9 10 -6 15 -4 15 11 3 11 -9 14 -10 9 -1 -5 8 0 12 14 12 15 0 20
5 17 14 -4 9 0 13 11 11 9 -1 23 3 31 9 12 9 13 8 7 -4 -4 -8 1 -5 11 6 12 15
29 21 50 20 17 0 30 1 27 3 -2 2 1 10 7 17 8 10 16 11 31 3 16 -9 19 -8 13 2
-6 9 -3 11 8 6 9 -3 19 -2 22 3 4 6 14 6 27 -1 18 -10 20 -9 15 5 -10 25 10
28 27 4 9 -12 16 -16 16 -9 0 8 7 11 20 8 14 -4 20 0 21 11 0 12 3 10 9 -5 11
-27 23 -31 13 -5 -6 15 -5 16 12 2 17 -14 18 -13 12 3 -4 11 -3 16 3 12 6 -3
10 -13 10 -21 0 -8 5 -14 11 -14 5 0 8 4 5 8 -2 4 4 8 14 8 10 0 17 -3 14 -7
-2 -4 3 -10 12 -13 8 -3 12 -2 9 4 -10 16 12 12 29 -5 20 -21 70 -39 60 -22
-6 8 -3 8 9 -1 9 -8 22 -10 29 -6 11 6 10 5 0 -8 -11 -14 -10 -16 12 -14 15 2
23 -1 20 -9 -3 -6 13 -20 36 -30 22 -10 40 -25 40 -34 0 -14 2 -14 10 -1 8 13
10 12 10 -4 0 -12 5 -16 16 -12 8 3 13 2 11 -2 -5 -10 40 -51 49 -43 4 3 4 1
1 -5 -4 -6 2 -22 13 -34 11 -12 17 -27 13 -33 -4 -6 0 -8 11 -4 10 4 15 3 11
-3 -3 -6 -1 -10 4 -10 6 0 11 -9 11 -21 0 -11 5 -17 10 -14 6 3 10 -1 10 -9 0
-8 5 -18 12 -22 7 -5 8 -3 3 6 -5 8 -4 11 3 7 5 -4 9 -18 8 -32 -2 -13 0 -24
3 -23 3 0 13 0 21 -1 13 -1 13 -2 0 -11 -13 -8 -12 -10 3 -10 10 0 15 -4 12
-10 -3 -5 -1 -10 5 -10 7 0 10 -7 7 -15 -4 -8 -1 -17 5 -21 7 -5 8 -2 4 7 -4
8 -1 5 8 -5 8 -10 13 -23 10 -27 -3 -5 0 -9 6 -9 6 0 8 -5 5 -10 -3 -6 2 -10
12 -10 15 0 16 -2 3 -10 -12 -8 -10 -10 10 -11 23 0 23 -1 5 -9 -17 -7 -17 -9
-2 -9 10 -1 17 -9 17 -21 0 -11 6 -20 14 -20 19 0 26 -21 14 -43 -5 -9 -5 -17
-1 -16 4 1 15 1 23 0 13 -1 13 -2 0 -11 -13 -8 -12 -10 3 -10 9 0 17 -5 17
-11 0 -5 -6 -7 -12 -4 -7 4 -5 0 5 -8 10 -8 19 -24 20 -35 0 -11 5 -18 11 -15
5 4 7 -1 3 -10 -3 -9 -1 -19 5 -23 7 -4 8 -3 4 4 -4 7 -2 12 3 12 6 0 11 -9
11 -20 0 -21 19 -28 21 -7 0 6 2 22 5 34 2 14 -1 23 -8 23 -9 0 -9 3 0 12 15
15 16 31 0 22 -7 -5 -8 -3 -3 6 13 21 10 219 -3 232 -7 7 -12 17 -12 23 0 5 5
3 10 -5 8 -13 10 -13 10 2 0 9 -6 19 -12 21 -7 3 -4 6 7 6 16 1 17 3 5 10 -8
6 -19 7 -25 4 -5 -4 -1 4 10 17 11 13 14 20 8 16 -8 -4 -13 -1 -13 9 0 9 4 14
8 11 5 -3 9 1 9 9 0 8 -4 12 -8 10 -4 -3 -9 2 -12 9 -3 8 -1 17 6 20 8 3 8 5
1 5 -7 1 -10 14 -8 32 3 20 0 28 -8 23 -7 -5 -8 -3 -2 7 13 21 14 39 2 39 -6
0 -4 7 3 17 10 11 10 14 2 9 -16 -9 -16 -1 -3 24 7 13 7 21 -2 26 -6 4 -8 3
-5 -3 4 -6 1 -16 -7 -22 -11 -9 -12 -6 -8 14 2 14 9 25 16 26 6 0 2 4 -9 9
-13 6 -15 9 -5 9 13 1 13 3 1 10 -12 8 -12 12 -2 24 8 11 9 17 1 22 -6 3 -7
11 -4 17 5 7 2 8 -6 3 -10 -6 -12 -4 -7 8 3 10 3 17 -2 17 -5 0 -11 9 -14 19
-4 15 -1 18 12 14 14 -6 13 -3 -2 14 -13 15 -15 22 -6 25 9 3 5 12 -11 28 -14
14 -17 21 -8 17 11 -4 15 0 14 11 -2 9 -8 18 -14 20 -7 2 -10 8 -6 13 3 5 1 9
-4 9 -5 0 -9 7 -9 15 0 8 5 15 10 15 6 0 0 8 -11 19 -24 20 -30 37 -9 25 9 -6
8 -3 -1 8 -8 9 -13 25 -12 35 4 34 0 45 -14 40 -10 -4 -12 3 -10 25 3 23 1 29
-11 24 -20 -7 -19 4 3 21 9 7 13 13 7 12 -5 -1 -17 -1 -25 0 -13 1 -13 2 0 11
8 5 10 10 4 10 -7 0 -15 7 -18 16 -4 9 -2 13 5 8 7 -4 10 -1 7 7 -3 8 -11 13
-18 11 -10 -2 -11 0 -2 11 9 11 7 18 -8 35 -12 12 -16 23 -10 27 13 8 13 25
-1 25 -5 0 -7 -4 -4 -10 3 -5 -1 -10 -10 -10 -9 0 -13 5 -10 10 4 6 1 18 -7
27 -8 10 -8 14 -1 10 6 -4 14 -3 18 3 5 9 -15 15 -38 11 -5 -1 -6 3 -2 9 3 6
11 8 16 5 5 -4 9 -2 9 3 0 6 -7 12 -15 16 -8 3 -12 12 -9 21 4 9 0 15 -10 15
-10 0 -13 6 -10 15 4 8 2 15 -4 15 -5 0 -13 7 -16 16 -4 9 -2 13 5 8 8 -4 7 0
0 15 -7 11 -17 21 -22 21 -6 0 -8 7 -5 16 3 8 2 12 -4 9 -6 -3 -10 1 -10 10 0
9 -4 14 -8 11 -5 -3 -9 1 -9 9 0 8 5 12 10 8 5 -3 6 3 3 15 -4 13 -1 22 9 25
8 4 12 13 9 22 -4 10 0 15 12 15 16 0 17 2 4 10 -10 6 -11 10 -2 10 6 0 12 7
12 16 0 8 4 13 9 9 6 -3 8 4 6 16 -3 14 0 19 8 16 8 -3 14 4 15 19 3 47 5 52
19 47 9 -4 11 0 6 13 -4 12 -3 15 5 10 8 -5 10 -1 5 10 -5 13 -3 15 8 9 11 -7
11 -5 -1 10 -14 17 -13 18 4 12 14 -6 17 -4 12 8 -3 8 -1 15 5 15 6 0 6 8 -1
21 -7 11 -9 23 -6 27 3 3 6 0 6 -6 0 -7 5 -12 11 -12 6 0 9 7 5 15 -3 10 1 15
12 15 10 0 13 3 7 8 -13 9 -13 27 -1 39 5 5 6 2 1 -6 -5 -9 -4 -12 3 -7 6 4 9
13 5 21 -3 8 0 15 6 15 6 0 11 5 11 11 0 5 -4 7 -10 4 -6 -3 -7 1 -4 9 3 9 13
16 21 16 8 0 11 5 8 10 -4 6 -11 7 -17 4 -7 -4 -8 -2 -4 5 4 6 12 9 17 6 9 -6
10 0 13 63 1 15 9 38 18 50 9 13 15 35 13 48 -1 16 2 23 10 21 6 -3 12 1 12 9
0 7 -5 10 -11 7 -6 -4 -5 0 1 9 7 8 10 18 6 21 -3 4 -2 7 4 7 5 0 7 14 5 31
-4 25 -2 30 9 24 12 -7 12 -6 1 7 -10 13 -10 18 -1 24 8 5 9 3 4 -6 -5 -8 -4
-11 3 -6 6 4 8 14 5 23 -4 9 -2 14 3 11 5 -4 9 4 9 17 0 13 -2 22 -5 20 -4 -2
-6 7 -6 20 0 13 4 21 8 19 5 -3 5 -10 2 -16 -4 -7 -2 -8 4 -4 6 4 9 13 5 21
-3 9 1 23 8 32 12 14 12 16 0 8 -11 -6 -13 -4 -8 8 4 10 10 24 14 34 4 11 3
14 -6 8 -10 -6 -11 -3 -3 11 5 11 9 30 8 44 -1 14 3 28 9 32 6 5 4 8 -4 8 -11
0 -10 4 5 16 10 8 13 13 7 9 -7 -3 -13 -2 -13 2 0 5 6 15 13 22 10 11 9 12 -2
6 -9 -5 -12 -3 -9 6 3 8 12 13 19 11 11 -2 11 1 -1 10 -8 7 -16 19 -18 27 -2
11 0 12 11 3 12 -10 13 -5 7 33 -4 25 -4 45 1 45 4 0 3 16 -1 35 -4 19 -4 37
1 40 4 3 4 16 -1 29 -5 13 -6 27 -3 30 11 10 9 96 -2 96 -5 0 -4 4 4 9 12 8
12 12 2 25 -11 12 -11 16 -1 16 9 0 9 4 -1 17 -10 11 -10 14 -1 9 6 -4 12 -2
12 3 0 6 -8 11 -17 12 -17 0 -17 1 -1 7 12 5 15 11 8 22 -5 9 -5 19 2 27 7 9
6 14 -6 19 -15 6 -15 8 1 20 17 13 17 14 -2 7 -18 -6 -19 -5 -5 12 8 10 10 16
4 12 -7 -4 -14 0 -17 8 -4 9 -1 12 9 8 7 -3 14 -1 14 5 0 6 -5 12 -12 14 -6 2
-12 16 -12 30 -1 16 3 24 9 20 5 -3 4 1 -2 9 -10 12 -10 18 -1 27 9 9 9 12 -1
12 -7 0 -9 5 -6 10 4 6 1 18 -7 27 -9 12 -9 15 0 9 6 -4 12 -2 12 3 0 6 -5 11
-12 11 -9 0 -9 3 0 12 15 15 16 31 0 22 -8 -5 -9 -2 -5 10 4 10 1 19 -8 23
-13 5 -13 7 2 18 16 12 16 14 2 20 -17 6 -22 35 -6 35 5 0 5 6 -2 13 -8 10 -7
17 2 26 10 11 7 12 -13 6 -14 -3 -20 -3 -14 2 13 9 13 94 0 86 -5 -3 -7 8 -4
25 2 17 2 31 -1 30 -20 -2 -22 4 -5 17 18 13 18 14 -6 9 -18 -4 -21 -3 -11 4
8 6 9 12 3 16 -6 3 -8 15 -5 26 3 11 0 20 -6 20 -5 0 -8 7 -4 15 3 9 -3 26
-13 38 -11 12 -12 16 -4 10 12 -9 15 -7 15 12 0 19 -3 21 -14 12 -12 -10 -14
-9 -9 4 4 9 1 22 -5 29 -9 10 -9 11 3 5 13 -8 13 -6 1 8 -7 9 -11 24 -7 32 3
10 0 15 -11 15 -9 0 -13 3 -10 7 4 3 1 13 -6 21 -8 11 -9 14 0 9 8 -5 11 -1
10 12 0 11 -5 17 -10 14 -5 -3 -7 8 -5 23 2 19 -1 28 -10 26 -8 -1 -11 6 -8
23 3 17 0 28 -10 32 -8 3 -14 10 -14 15 0 6 7 7 16 4 8 -3 12 -2 9 4 -3 6 -15
10 -26 10 -19 0 -19 1 -5 16 21 20 20 24 -5 19 -17 -4 -19 -2 -9 10 10 12 9
15 -6 16 -18 0 -18 1 0 8 18 7 18 8 2 14 -16 6 -16 10 -5 24 9 10 9 14 2 10
-8 -5 -18 4 -28 24 -9 17 -12 28 -7 25 6 -4 8 2 5 14 -4 14 -9 17 -17 11 -8
-7 -12 -4 -12 9 0 10 4 16 8 14 4 -3 5 2 2 10 -3 9 -11 16 -16 16 -6 0 -8 9
-5 20 3 11 2 18 -2 16 -4 -3 -13 -1 -21 5 -11 6 -11 9 -2 9 10 0 10 5 2 20 -6
11 -7 20 -3 20 4 1 -3 8 -17 16 -18 11 -20 14 -5 10 19 -6 19 -5 2 8 -14 10
-15 15 -5 19 9 4 7 6 -4 6 -9 1 -20 6 -24 13 -4 7 -3 8 4 4 7 -4 12 -2 12 3 0
6 -5 11 -11 11 -6 0 -9 9 -6 20 4 16 2 18 -12 10 -13 -6 -18 -5 -18 5 0 8 5
11 11 8 6 -4 5 1 -2 10 -8 9 -11 21 -7 28 5 8 0 9 -16 4 -13 -3 -19 -3 -14 2
11 8 15 52 6 51 -22 -2 -31 5 -31 22 0 11 -6 20 -12 20 -10 0 -10 2 0 9 10 6
8 10 -9 14 -20 5 -21 8 -8 23 9 12 10 15 2 10 -8 -4 -13 -1 -13 9 0 10 -5 13
-11 9 -8 -5 -10 1 -7 19 4 18 1 24 -9 20 -7 -3 -13 2 -13 11 0 9 -4 16 -10 16
-5 0 -10 7 -10 16 0 9 -5 12 -12 8 -8 -5 -7 0 2 11 12 15 12 17 1 10 -11 -6
-13 -3 -9 13 3 12 3 21 -1 20 -25 -3 -33 3 -22 16 9 11 9 16 0 22 -8 4 -9 3
-5 -4 4 -7 3 -12 -2 -12 -5 0 -15 12 -23 28 -8 15 -20 33 -27 40 -7 8 -9 19
-5 25 4 6 0 8 -10 4 -11 -4 -14 -2 -11 8 5 12 -12 36 -73 100 -15 16 -19 25
-10 28 7 4 6 6 -4 6 -9 1 -21 13 -27 27 -7 15 -17 22 -24 18 -7 -4 -8 -3 -4 5
8 13 -18 43 -29 33 -4 -4 -4 3 -1 15 6 18 4 22 -7 17 -8 -3 -18 0 -23 7 -5 8
-3 10 7 5 8 -4 6 -1 -3 7 -10 8 -14 17 -10 21 4 4 3 7 -3 6 -27 -6 -37 0 -26
14 10 12 9 14 -6 11 -27 -4 -35 5 -21 23 7 10 8 14 4 10 -12 -10 -58 41 -50
54 4 7 2 8 -5 4 -12 -8 -41 16 -41 33 0 6 -7 11 -16 11 -8 0 -12 5 -9 10 3 6
-1 10 -10 10 -9 0 -13 5 -10 10 3 6 1 10 -5 10 -6 0 -8 5 -4 13 5 8 2 8 -9 -2
-15 -12 -17 -11 -17 8 0 11 -6 21 -14 21 -8 0 -17 7 -20 16 -4 9 -13 14 -21
10 -13 -4 -14 -2 -5 14 6 11 7 20 3 19 -17 -4 -43 14 -36 25 4 6 0 6 -9 -2
-11 -9 -17 -9 -20 -2 -2 6 -7 8 -11 4z m50 -499 c0 -8 -4 -12 -9 -9 -5 3 -6
10 -3 15 9 13 12 11 12 -6z m-3820 -60 c0 -8 -4 -12 -9 -9 -5 3 -6 10 -3 15 9
13 12 11 12 -6z m4321 -40 c-3 -3 -9 2 -12 12 -6 14 -5 15 5 6 7 -7 10 -15 7
-18z m-3313 -155 c3 -6 -1 -7 -9 -4 -18 7 -21 14 -7 14 6 0 13 -4 16 -10z
m-805 -260 c0 -5 -2 -10 -4 -10 -3 0 -8 5 -11 10 -3 6 -1 10 4 10 6 0 11 -4
11 -10z m245 0 c3 -6 -1 -7 -9 -4 -18 7 -21 14 -7 14 6 0 13 -4 16 -10z m-157
-185 c-3 -3 -9 2 -12 12 -6 14 -5 15 5 6 7 -7 10 -15 7 -18z m1333 -172 c13
-16 12 -17 -3 -4 -10 7 -18 15 -18 17 0 8 8 3 21 -13z m-716 -143 c3 -5 1 -10
-4 -10 -6 0 -11 5 -11 10 0 6 2 10 4 10 3 0 8 -4 11 -10z m3948 -155 c-3 -9
-8 -14 -10 -11 -3 3 -2 9 2 15 9 16 15 13 8 -4z m-3433 -41 c0 -8 -19 -13 -24
-6 -3 5 1 9 9 9 8 0 15 -2 15 -3z m2427 -19 c0 -8 -4 -12 -9 -9 -5 3 -6 10 -3
15 9 13 12 11 12 -6z m-2373 -71 c3 -8 2 -12 -4 -9 -6 3 -10 10 -10 16 0 14 7
11 14 -7z m647 -877 c-10 -9 -11 -8 -5 6 3 10 9 15 12 12 3 -3 0 -11 -7 -18z
m1064 -17 c3 -5 1 -10 -4 -10 -6 0 -11 5 -11 10 0 6 2 10 4 10 3 0 8 -4 11
-10z m220 -200 c3 -6 -1 -7 -9 -4 -18 7 -21 14 -7 14 6 0 13 -4 16 -10z
m-2034 -27 c13 -16 12 -17 -3 -4 -10 7 -18 15 -18 17 0 8 8 3 21 -13z m46 -58
c0 -8 -4 -12 -9 -9 -5 3 -6 10 -3 15 9 13 12 11 12 -6z m697 -951 c3 -8 2 -12
-4 -9 -6 3 -10 10 -10 16 0 14 7 11 14 -7z m-2563 -587 c-10 -9 -11 -8 -5 6 3
10 9 15 12 12 3 -3 0 -11 -7 -18z m5274 -117 c3 -5 1 -10 -4 -10 -6 0 -11 5
-11 10 0 6 2 10 4 10 3 0 8 -4 11 -10z m-300 -590 c3 -6 -1 -7 -9 -4 -18 7
-21 14 -7 14 6 0 13 -4 16 -10z m-2225 -514 c0 -2 -7 -7 -16 -10 -8 -3 -12 -2
-9 4 6 10 25 14 25 6z"/>
<path d="M1190 5889 c0 -5 -5 -7 -12 -3 -7 4 -8 3 -4 -4 10 -17 33 -15 33 3 0
8 -4 15 -9 15 -4 0 -8 -5 -8 -11z"/>
<path d="M1208 5868 c-14 -14 -15 -18 -4 -18 8 0 17 7 20 16 9 23 4 24 -16 2z"/>
<path d="M1830 4806 c0 -2 7 -7 16 -10 8 -3 12 -2 9 4 -6 10 -25 14 -25 6z"/>
<path d="M2516 3847 c3 -10 9 -15 12 -12 3 3 0 11 -7 18 -10 9 -11 8 -5 -6z"/>
<path d="M1710 3706 c0 -2 7 -7 16 -10 8 -3 12 -2 9 4 -6 10 -25 14 -25 6z"/>
<path d="M2656 3667 c3 -10 9 -15 12 -12 3 3 0 11 -7 18 -10 9 -11 8 -5 -6z"/>
<path d="M3720 3546 c0 -2 8 -10 18 -17 15 -13 16 -12 3 4 -13 16 -21 21 -21
13z"/>
<path d="M5725 2290 c-3 -5 -1 -10 4 -10 6 0 11 5 11 10 0 6 -2 10 -4 10 -3 0
-8 -4 -11 -10z"/>
<path d="M2746 2267 c3 -10 9 -15 12 -12 3 3 0 11 -7 18 -10 9 -11 8 -5 -6z"/>
<path d="M2656 1588 c3 -5 10 -6 15 -3 13 9 11 12 -6 12 -8 0 -12 -4 -9 -9z"/>
<path d="M350 1279 c0 -5 5 -7 10 -4 6 3 10 8 10 11 0 2 -4 4 -10 4 -5 0 -10
-5 -10 -11z"/>
<path d="M630 1046 c0 -2 7 -7 16 -10 8 -3 12 -2 9 4 -6 10 -25 14 -25 6z"/>
<path d="M973 805 c0 -8 4 -12 9 -9 5 3 6 10 3 15 -9 13 -12 11 -12 -6z"/>
<path d="M1930 380 c0 -5 5 -10 11 -10 5 0 7 5 4 10 -3 6 -8 10 -11 10 -2 0
-4 -4 -4 -10z"/>
<path d="M2136 327 c3 -10 9 -15 12 -12 3 3 0 11 -7 18 -10 9 -11 8 -5 -6z"/>
</g>
</svg>
